<?xml version="1.0" encoding="utf-8"?>
<!-- Generator: Adobe Illustrator 16.0.4, SVG Export Plug-In . SVG Version: 6.00 Build 0)  -->
<svg version="1.2" baseProfile="tiny" id="Layer_1" xmlns="http://www.w3.org/2000/svg" xmlns:xlink="http://www.w3.org/1999/xlink"
	 x="0px" y="0px" width="266.64px" height="45.87px" viewBox="0 0 266.64 45.87" xml:space="preserve">
<g id="XMLID_1_">
	<g>
		<polygon fill="#FF743D" points="42.14,3.92 42.14,43.91 22.14,23.91 		"/>
	</g>
	<g>
		<polyline fill="none" stroke="#000000" stroke-width="3" stroke-miterlimit="10" points="22.14,23.91 2.14,3.92 2.14,43.91 
			42.14,43.91 42.14,3.92 22.14,23.91 		"/>
		<line fill="none" stroke="#000000" stroke-width="3" stroke-miterlimit="10" x1="42.14" y1="43.91" x2="22.14" y2="23.91"/>
	</g>
</g>
<g>
	<path fill="#272727" d="M74,13.2v-3.2h2.8v3.2H74z M74,35.9v-18.5h2.8v18.5H74z"/>
</g>
<g>
	<path fill="#272727" d="M88.6,19.5c-2.7,0-4,0.9-4,2.8c0,0.9,0.3,1.5,0.9,1.8c0.6,0.4,2,0.7,4.2,1.1
		c2.2,0.4,3.8,0.9,4.7,1.6c0.9,0.7,1.4,2,1.4,3.9s-0.6,3.3-1.8,4.2c-1.2,0.9-3,1.3-5.4,1.3
		c-1.5,0-3.3-0.2-5.4-0.5l-1.1-0.2l0.2-2.4c2.8,0.4,4.9,0.6,6.4,0.6s2.5-0.2,3.3-0.7
		c0.8-0.5,1.1-1.2,1.1-2.3s-0.3-1.8-1-2.2c-0.6-0.4-2-0.8-4.2-1.1c-2.2-0.4-3.7-0.8-4.6-1.5
		c-0.9-0.7-1.4-1.9-1.4-3.7c0-1.8,0.6-3.1,1.9-4c1.3-0.9,2.9-1.3,4.8-1.3c1.5,0,3.4,0.2,5.7,0.5l1,0.2
		l-0.1,2.4C92.4,19.7,90.2,19.5,88.6,19.5z"/>
</g>
<g>
	<path fill="#272727" d="M114,23v9.5c0.1,0.9,0.8,1.5,2.2,1.6L116,36.3c-2,0-3.4-0.5-4.4-1.5
		c-2.2,1-4.4,1.5-6.7,1.5c-1.7,0-3-0.5-3.9-1.4c-0.9-1-1.3-2.3-1.3-4.1c0-1.8,0.5-3.1,1.4-4
		c0.9-0.8,2.3-1.4,4.3-1.6l5.8-0.6V23c0-1.3-0.3-2.2-0.8-2.7c-0.5-0.5-1.3-0.8-2.2-0.8
		c-2,0-4,0.1-6.1,0.4l-1.2,0.1l-0.1-2.1c2.7-0.5,5.1-0.8,7.2-0.8c2.1,0,3.6,0.5,4.6,1.4
		C113.5,19.4,114,21,114,23z M102.6,30.6c0,2.3,0.9,3.4,2.8,3.4c1.7,0,3.3-0.3,5-0.8l0.8-0.3v-6.1
		l-5.5,0.5c-1.1,0.1-1.9,0.4-2.4,1C102.8,28.7,102.6,29.5,102.6,30.6z"/>
	<path fill="#272727" d="M132.5,23v9.5c0.1,0.9,0.8,1.5,2.2,1.6l-0.1,2.2c-2,0-3.4-0.5-4.4-1.5
		c-2.2,1-4.4,1.5-6.7,1.5c-1.7,0-3-0.5-3.9-1.4c-0.9-1-1.3-2.3-1.3-4.1s0.5-3.1,1.4-4
		c0.9-0.8,2.3-1.4,4.3-1.6l5.8-0.6V23c0-1.3-0.3-2.2-0.8-2.7c-0.5-0.5-1.3-0.8-2.2-0.8
		c-2,0-4,0.1-6.1,0.4l-1.2,0.1l-0.1-2.1c2.7-0.5,5.1-0.8,7.2-0.8c2.1,0,3.6,0.5,4.6,1.4
		C132,19.4,132.5,21,132.5,23z M121.1,30.6c0,2.3,0.9,3.4,2.8,3.4c1.7,0,3.3-0.3,5-0.8l0.8-0.3v-6.1l-5.5,0.5
		c-1.1,0.1-1.9,0.4-2.4,1C121.4,28.7,121.1,29.5,121.1,30.6z"/>
</g>
<g>
	<path fill="#272727" d="M145.8,17c0.8,0,2.2,0.2,4.1,0.4l0.9,0.1l-0.1,2.3c-2-0.2-3.4-0.3-4.4-0.3
		c-2.1,0-3.5,0.5-4.3,1.5c-0.8,1-1.1,2.8-1.1,5.6s0.4,4.6,1.1,5.6c0.7,1.1,2.2,1.6,4.4,1.6l4.4-0.3l0.1,2.3
		c-2.3,0.4-4,0.5-5.1,0.5c-2.9,0-4.9-0.7-6-2.2c-1.1-1.5-1.6-4-1.6-7.5c0-3.5,0.6-6,1.8-7.4
		C141,17.8,143,17,145.8,17z"/>
	<path fill="#272727" d="M154.8,35.9V31.7h3v4.2H154.8z"/>
</g>
<g>
	<path fill="#272727" d="M167.2,35.9h-2.8v-18.5h2.7v1.3c1.8-1.1,3.6-1.7,5.4-1.7c2.3,0,3.9,0.6,4.8,1.9
		c0.8-0.5,1.9-0.9,3.2-1.3s2.4-0.6,3.4-0.6c2.5,0,4.1,0.7,5,2c0.8,1.3,1.3,3.7,1.3,7.1v9.8h-2.8v-9.7
		c0-2.6-0.2-4.3-0.7-5.3c-0.5-1-1.5-1.4-3.2-1.4c-0.8,0-1.6,0.1-2.5,0.4c-0.9,0.2-1.5,0.5-2,0.7l-0.7,0.3
		c0.3,0.8,0.5,2.6,0.5,5.4v9.6h-2.8v-9.5c0-2.7-0.2-4.5-0.7-5.4c-0.5-1-1.5-1.4-3.2-1.4
		c-0.8,0-1.6,0.1-2.4,0.4c-0.8,0.2-1.5,0.5-1.9,0.7l-0.6,0.3V35.9L167.2,35.9z"/>
</g>
<g>
	<path fill="#272727" d="M208.5,23v9.5c0.1,0.9,0.8,1.5,2.2,1.6l-0.1,2.2c-2,0-3.4-0.5-4.4-1.5
		c-2.2,1-4.4,1.5-6.7,1.5c-1.7,0-3-0.5-3.9-1.4c-0.9-1-1.3-2.3-1.3-4.1s0.5-3.1,1.4-4
		c0.9-0.8,2.3-1.4,4.3-1.6l5.8-0.6V23c0-1.3-0.3-2.2-0.8-2.7c-0.5-0.5-1.3-0.8-2.2-0.8
		c-2,0-4,0.1-6.1,0.4l-1.2,0.1l-0.1-2.1c2.7-0.5,5.1-0.8,7.2-0.8c2.1,0,3.6,0.5,4.6,1.4
		C208,19.4,208.5,21,208.5,23z M197.1,30.6c0,2.3,0.9,3.4,2.8,3.4c1.7,0,3.3-0.3,5-0.8l0.8-0.3v-6.1
		l-5.5,0.5c-1.1,0.1-1.9,0.4-2.4,1C197.3,28.7,197.1,29.5,197.1,30.6z"/>
</g>
<g>
	<path fill="#272727" d="M214.7,35.9v-18.5h2.7v2.5c2.2-1.5,4.4-2.4,6.8-2.9v2.8c-1,0.2-2.1,0.5-3.2,0.9
		c-1.1,0.4-2,0.8-2.6,1.1l-0.9,0.5v13.6H214.7L214.7,35.9z"/>
</g>
<g>
	<path fill="#272727" d="M238,19.8h-5.9v8.8c0,2.1,0.2,3.5,0.5,4.2c0.3,0.7,1,1,2.2,1l3.3-0.2l0.2,2.3
		c-1.6,0.3-2.9,0.4-3.8,0.4c-1.9,0-3.3-0.5-4-1.4c-0.7-0.9-1.1-2.7-1.1-5.4v-9.7h-2.6v-2.4h2.6v-5.7h2.7v5.7
		h5.9L238,19.8L238,19.8z"/>
</g>
<g>
	<path fill="#272727" d="M242.1,13.2v-3.2h2.8v3.2H242.1z M242.1,35.9v-18.5h2.8v18.5H242.1z"/>
</g>
<g>
	<path fill="#272727" d="M253,35.9h-2.8v-18.5h2.7v1.3c2-1.1,3.9-1.7,5.7-1.7c2.5,0,4.1,0.7,5,2
		c0.8,1.3,1.3,3.7,1.3,7.1v9.8h-2.7v-9.7c0-2.6-0.2-4.3-0.8-5.3c-0.5-1-1.6-1.4-3.2-1.4
		c-0.8,0-1.6,0.1-2.5,0.4c-0.9,0.2-1.6,0.5-2,0.7l-0.7,0.3V35.9z"/>
</g>
</svg>
