<?xml version="1.0" encoding="UTF-8" standalone="no"?>
<svg width="919px" height="213px" viewBox="0 0 919 213" version="1.1" xmlns="http://www.w3.org/2000/svg" xmlns:xlink="http://www.w3.org/1999/xlink" xmlns:sketch="http://www.bohemiancoding.com/sketch/ns">
    <!-- Generator: Sketch 3.4.4 (17249) - http://www.bohemiancoding.com/sketch -->
    <title>logo-car_net</title>
    <desc>Created with Sketch.</desc>
    <defs></defs>
    <g id="Cover" stroke="none" stroke-width="1" fill="none" fill-rule="evenodd" sketch:type="MSPage">
        <g id="Desktop-Super-HD" sketch:type="MSArtboardGroup" transform="translate(-927.000000, -566.000000)">
            <g id="logo-car_net" sketch:type="MSLayerGroup" transform="translate(927.000000, 566.000000)">
                <path d="M0.68652034,146.298739 C0.68652034,137.998298 2.1541841,129.825752 5.08737216,121.761918 C8.02911803,113.693821 12.3508101,106.529521 18.0802614,100.298861 C23.8054337,94.0937806 31.0282221,89.0291046 39.7400688,85.1623864 C48.4412182,81.2935367 58.4816643,79.3559144 69.8464309,79.3559144 C75.5202564,79.3559144 81.5321152,79.9293142 87.8627523,81.0931665 C94.2062261,82.2548872 99.554855,83.8642434 103.930033,85.8977876 L103.930033,122.397134 C101.050332,120.288984 96.9019351,118.438758 91.5019594,116.840059 C86.1041231,115.237098 80.877443,114.433486 75.8561503,114.433486 C66.7185527,114.433486 58.9181124,117.159799 52.4526898,122.608163 C45.9722911,128.056526 42.7288826,135.557618 42.7288826,145.066675 C42.7288826,149.374634 43.507643,153.512065 45.0480481,157.500285 C46.5798954,161.490635 48.7792515,164.928902 51.6183037,167.795901 C54.453077,170.701269 57.9189885,172.979947 62.0203171,174.670304 C66.1195063,176.371319 70.7300244,177.209037 75.8561503,177.209037 C81.3502618,177.209037 86.5854997,176.369187 91.5789796,174.670304 C96.5489256,172.979947 100.678067,170.711927 103.930033,167.87477 L103.930033,205.31202 C100.115391,206.840376 94.873735,208.370863 88.2179013,209.943982 C81.5535097,211.517101 74.4933196,212.295134 67.0523072,212.295134 C56.3357944,212.295134 46.8879764,210.51525 38.6853192,206.972535 C30.4890803,203.425556 23.5765124,198.635856 17.9347787,192.60983 C12.3016028,186.598724 8.02911803,179.596426 5.08737216,171.671146 C2.1541841,163.726681 0.68652034,155.27916 0.68652034,146.298739" id="Shape" fill="#13171D" sketch:type="MSShapeGroup"></path>
                <path d="M121.700318,147.916622 C121.700318,138.019614 123.138029,128.907034 125.977082,120.561829 C128.82897,112.210229 132.947415,104.984113 138.317438,98.8770858 C143.689601,92.7615321 150.259857,87.9846217 158.023926,84.5314335 C165.779438,81.0931665 174.521237,79.358046 184.249323,79.358046 C192.978285,79.358046 200.832212,81.1187457 207.798266,84.6529346 C214.770739,88.1743339 219.971746,92.5760831 223.418402,97.8645769 L223.418402,83.3888972 L264.07226,83.3888972 L264.07226,208.255757 L223.418402,208.255757 L223.418402,195.781647 C218.307252,200.77598 212.314649,204.830279 205.436312,207.931754 C198.562254,211.014044 190.288995,212.574373 180.618674,212.574373 C171.457542,212.574373 163.227072,210.947964 155.929403,207.724989 C148.629594,204.491355 142.435882,200.040579 137.343988,194.364135 C132.247814,188.68769 128.373267,181.890025 125.701092,173.949824 C123.033196,166.007491 121.700318,157.327625 121.700318,147.916622 M163.759796,146.78048 C163.759796,151.378336 164.476512,155.78648 165.909945,160.011307 C167.356214,164.236133 169.401529,167.908876 172.05017,171.057246 C174.692393,174.209879 177.927244,176.682532 181.735468,178.509311 C185.543691,180.33609 189.91887,181.248414 194.839608,181.248414 C199.580633,181.248414 203.816747,180.33609 207.528695,178.509311 C211.242783,176.682532 214.385638,174.235458 216.938003,171.197931 C219.492508,168.143352 221.439409,164.65819 222.795822,160.725392 C224.139397,156.788331 224.813324,152.599742 224.813324,148.185203 C224.813324,143.593742 224.047401,139.275125 222.506996,135.250668 C220.979427,131.22408 218.889183,127.657917 216.242682,124.564969 C213.585483,121.463495 210.305704,119.007894 206.411902,117.189641 C202.513821,115.347941 198.183571,114.433486 193.446825,114.433486 C184.895438,114.433486 177.809574,117.392143 172.199932,123.300932 C166.571035,129.199063 163.759796,137.04121 163.759796,146.78048" id="Shape" fill="#13171D" sketch:type="MSShapeGroup"></path>
                <path d="M292.961274,208.26002 L292.961274,83.3931604 L333.056736,83.3931604 L333.056736,102.933516 C336.680967,96.099614 341.443386,90.4935122 347.301204,86.1642373 C352.70118,82.1802813 360.07159,80.1936323 369.371786,80.1936323 L371.900618,80.1936323 L371.900618,121.544495 C367.514742,118.191492 361.973563,116.567215 355.264243,116.656742 C348.379488,116.656742 343.043696,119.564241 339.271842,125.370713 C335.49785,131.187843 333.615133,140.652137 333.615133,153.742278 L333.615133,208.26002 L292.961274,208.26002 L292.961274,208.26002 Z" id="Shape" fill="#13171D" sketch:type="MSShapeGroup"></path>
                <rect id="Rectangle-path" fill="#009EDA" sketch:type="MSShapeGroup" x="395.066599" y="119.873323" width="84.6645159" height="33.1207645"></rect>
                <path d="M502.835052,208.26002 L502.835052,83.3931604 L543.497468,83.3931604 L543.497468,100.407573 C544.980108,98.2141589 546.869244,95.9589286 549.156318,93.6333555 C551.441252,91.3205721 554.211842,89.1783164 557.468087,87.225773 C560.722193,85.2838875 564.547532,83.6660049 568.933408,82.3891779 C573.300028,81.1144825 578.3256,80.4686084 584.010123,80.4686084 C592.020229,80.4686084 598.697458,81.726251 604.067481,84.226615 C609.422528,86.7269791 613.718547,89.6152939 616.987629,92.8617172 C620.986264,96.8478048 623.863826,101.633242 625.583945,107.203106 C627.310482,112.772971 628.170542,120.148299 628.170542,129.339748 L628.170542,208.26002 L587.508126,208.26002 L587.508126,139.835735 C587.508126,136.977262 587.232137,134.106 586.669461,131.202764 C586.117482,128.314449 585.109801,125.737348 583.663532,123.479986 C582.217262,121.226887 580.261804,119.340423 577.801434,117.822726 C575.326089,116.317818 572.185374,115.544048 568.368592,115.544048 C566.224862,115.544048 563.777329,115.936262 561.028134,116.716427 C558.278939,117.507249 555.559696,118.888525 552.868266,120.873042 C550.157581,122.84477 547.917575,125.613715 546.146109,129.143641 C544.38748,132.682093 543.499608,137.407845 543.499608,143.276133 L543.499608,208.26002 L502.835052,208.26002 L502.835052,208.26002 Z" id="Shape" fill="#13171D" sketch:type="MSShapeGroup"></path>
                <path d="M651.717346,119.796585 C654.843084,111.491881 659.299562,104.304133 665.133846,98.2141589 C670.953154,92.1348424 677.863583,87.3813796 685.884387,83.9516389 C693.888075,80.5112403 702.779636,78.7931726 712.565487,78.7931726 C722.064652,78.7931726 730.774359,80.2916858 738.696748,83.2588697 C746.604161,86.2260537 753.377665,90.4444854 759.01084,95.9205598 C764.663271,101.407292 769.059844,108.198562 772.221954,116.317818 C775.390481,124.434942 776.975815,133.686076 776.975815,144.079746 L776.975815,148.820419 C776.975815,150.86249 776.888098,153.085746 776.695547,155.511504 L686.30158,155.511504 C686.671705,163.323809 689.634845,169.797472 695.169606,174.943148 C700.710786,180.078167 707.856554,182.648874 716.619748,182.648874 C729.191165,182.648874 739.623131,177.238879 747.913505,166.410363 L774.181691,183.507908 C766.916114,193.134203 758.418212,200.447714 748.690126,205.410074 C738.949203,210.372433 726.857023,212.855744 712.424283,212.855744 C704.046191,212.855744 695.882044,211.461679 687.953236,208.679944 C680.02015,205.883288 673.054096,201.80341 667.016564,196.423258 C660.994008,191.040974 656.14815,184.221993 652.506803,175.964184 C648.859038,167.706374 647.034086,157.96071 647.034086,146.733585 C647.034086,137.081711 648.602304,128.103421 651.717346,119.796585 Z M686.57543,131.554478 L736.732732,131.554478 C736.732732,128.531872 736.15294,125.624373 734.995497,122.819191 C733.827356,120.033193 732.197094,117.507249 730.096153,115.262677 C728.005909,113.005315 725.498472,111.165746 722.561005,109.748234 C719.627816,108.322195 716.251762,107.620899 712.426423,107.620899 C705.162985,107.620899 699.223867,109.865472 694.617628,114.356748 C690.011389,118.848024 687.319959,124.59268 686.57543,131.554478" id="Shape" fill="#13171D" sketch:type="MSShapeGroup"></path>
                <path d="M791.637476,113.602162 L791.637476,83.3910288 L808.823691,83.3910288 L808.823691,38.8470324 L849.477549,38.8470324 L849.477549,83.3910288 L872.532279,83.3910288 L872.532279,113.602162 L849.477549,113.602162 L849.477549,208.257888 L808.823691,208.257888 L808.823691,113.602162 L791.637476,113.602162 Z" id="Shape" fill="#13171D" sketch:type="MSShapeGroup"></path>
                <path d="M3.21749151,2.92961184 L15.335345,2.92961184 L24.982132,31.3438087 C25.6089914,33.1492719 26.1545515,34.8779976 26.6188125,36.5299858 C27.0830735,38.1862372 27.5366372,39.8403569 27.9752248,41.5093979 C28.3966967,39.7508298 28.8395632,38.0924469 29.3166609,36.5299858 C29.7916191,34.9675247 30.3222031,33.3560369 30.899855,31.6912591 L40.8932332,2.92961184 L52.8720223,2.92961184 L33.8950872,53.3035278 L21.9184374,53.3035278 L3.21749151,2.92961184 L3.21749151,2.92961184 Z" id="Shape" fill="#767C80" sketch:type="MSShapeGroup"></path>
                <path d="M47.919192,37.6234954 C47.919192,35.3192383 48.3470823,33.1599299 49.202863,31.1498333 C50.0586436,29.1418683 51.2567364,27.3960898 52.7950021,25.906103 C54.3354072,24.4161163 56.1924511,23.2352112 58.3682734,22.3591245 C60.5419561,21.4787747 62.9616758,21.0396656 65.6231535,21.0396656 C68.1797981,21.0396656 70.5353343,21.4574587 72.6769253,22.2866502 C74.8206557,23.1179733 76.6819786,24.279694 78.2630332,25.7696808 C79.8419485,27.257536 81.0699937,29.016104 81.9450294,31.0475166 C82.820065,33.0767976 83.260792,35.2936591 83.260792,37.6917065 C83.260792,39.8275674 82.8585752,41.8973487 82.0520019,43.8989189 C81.2411498,45.9026207 80.0708698,47.6888995 78.5390225,49.2513606 C77.0028963,50.8180849 75.1009239,52.0757275 72.8331052,53.0242885 C70.5610077,53.974981 67.9808291,54.4503273 65.1011274,54.4503273 C62.6942444,54.4503273 60.4478203,54.0304026 58.3682734,53.1990795 C56.2823081,52.3634932 54.4616348,51.1996409 52.8976958,49.7053909 C51.3380356,48.2132726 50.1142693,46.4376517 49.2349547,44.3849232 C48.359919,42.3343262 47.919192,40.0790959 47.919192,37.6234954 M58.0494951,37.8664975 C58.0494951,39.0069023 58.2655797,40.0492535 58.6977489,41.0042093 C59.1256392,41.9570334 59.6840361,42.7862249 60.3708,43.4960469 C61.0554245,44.2016058 61.8555794,44.751558 62.7627068,45.1309823 C63.6719737,45.5168015 64.6240297,45.7086453 65.6231535,45.7086453 C66.7634812,45.7086453 67.786139,45.4933539 68.6932665,45.0627712 C69.6025334,44.6321885 70.3877121,44.0523939 71.0530816,43.3212559 C71.7120326,42.5901179 72.225501,41.7332157 72.5849289,40.7612071 C72.9464962,39.7828038 73.1262101,38.7639001 73.1262101,37.6917065 C73.1262101,35.4151602 72.400936,33.5286963 70.946109,32.0301831 C69.4934214,30.5338016 67.6962821,29.7813476 65.5525516,29.7813476 C64.412224,29.7813476 63.3788689,30.0009021 62.4503469,30.4272217 C61.5154066,30.8578044 60.725949,31.4589149 60.0755557,32.2262901 C59.423023,32.9872705 58.9223913,33.8612255 58.5758002,34.8353656 C58.2249301,35.813769 58.0494951,36.8241463 58.0494951,37.8664975" id="Shape" fill="#767C80" sketch:type="MSShapeGroup"></path>
                <rect id="Rectangle-path" fill="#767C80" sketch:type="MSShapeGroup" x="88.6907201" y="0.0860605642" width="10.134582" height="53.2174672"></rect>
                <path d="M105.508949,53.3035278 L105.508949,0.0860605642 L115.643531,0.0860605642 L115.643531,34.9888407 L125.461474,22.1822019 L137.893827,22.1822019 L125.812344,36.5470386 L138.728213,53.3035278 L125.461474,53.3035278 L115.643531,38.7340578 L115.643531,53.3035278 L105.508949,53.3035278 Z" id="Shape" fill="#767C80" sketch:type="MSShapeGroup"></path>
                <path d="M138.980668,46.8511817 L147.547032,43.4875205 C147.919297,44.5256086 148.501227,45.3825109 149.290685,46.0518325 C150.080143,46.7254174 150.997967,47.0579466 152.044159,47.0579466 C153.051841,47.0579466 153.83702,46.8682344 154.410393,46.4866785 C154.981626,46.1051225 155.266173,45.5807494 155.266173,44.9071646 C155.266173,44.1440526 154.891769,43.5429421 154.134403,43.1059646 C153.377037,42.6668554 152.439958,42.2447991 151.325303,41.8397956 C150.20851,41.4326604 148.993301,41.0084725 147.677539,40.5565738 C146.366055,40.1025435 145.152986,39.5099593 144.040471,38.7681633 C142.932235,38.0284989 141.995155,37.0778064 141.23351,35.9224804 C140.467587,34.7692861 140.088904,33.2878257 140.088904,31.4823625 C140.088904,30.0733765 140.369172,28.7389963 140.940406,27.4770905 C141.50736,26.2173163 142.32891,25.1110171 143.409333,24.1645877 C144.483337,23.2160268 145.796961,22.467836 147.335226,21.9242786 C148.87991,21.3849844 150.647097,21.1078767 152.638927,21.1078767 C155.567836,21.1078767 158.032484,21.6855397 160.03715,22.8302076 C162.039677,23.9748756 163.565106,25.8400235 164.598461,28.4299147 L156.541286,31.5505736 C156.008563,30.324905 155.351751,29.4786607 154.57513,29.0033144 C153.79637,28.5279682 152.998355,28.2913608 152.187502,28.2913608 C151.507157,28.2913608 150.886716,28.4832046 150.330458,28.8647606 C149.767783,29.2463166 149.487515,29.7941372 149.487515,30.5124856 C149.487515,31.3246243 149.866197,31.9683668 150.619284,32.4565026 C151.372371,32.9403753 152.305172,33.3858792 153.421966,33.7908828 C154.534481,34.1980179 155.756108,34.6243375 157.091125,35.0741046 C158.424004,35.5260033 159.641352,36.120719 160.745309,36.8603834 C161.844987,37.6021794 162.773509,38.5486088 163.533014,39.7039347 C164.29038,40.8613922 164.669063,42.3428526 164.669063,44.1440526 C164.669063,45.7193033 164.335308,47.1282893 163.66566,48.3774056 C162.998151,49.6286534 162.086745,50.690189 160.93358,51.5705389 C159.780416,52.4487571 158.424004,53.1138156 156.866483,53.5635827 C155.311102,54.0154814 153.608098,54.2414307 151.763891,54.2414307 C148.186728,54.2414307 145.396883,53.6488466 143.400775,52.4722047 C141.404667,51.2912996 139.930584,49.4218884 138.980668,46.8511817" id="Shape" fill="#767C80" sketch:type="MSShapeGroup"></path>
                <path d="M165.017793,22.1843335 L175.573847,22.1843335 L181.49157,37.1737283 C181.861695,38.0284989 182.180474,38.9216384 182.447905,39.8424885 C182.713197,40.7676019 182.997744,41.7055049 183.299407,42.6561975 C183.532607,41.7055049 183.776504,40.7676019 184.033239,39.8424885 C184.285694,38.9216384 184.542428,38.0732625 184.799162,37.3101505 L190.053655,22.1843335 L200.472784,22.1843335 L205.387104,36.3360104 C205.733696,37.4444412 206.054613,38.4867924 206.360555,39.4737221 C206.666496,40.4606519 206.946765,41.4710292 207.203499,42.5176436 C207.920215,40.2048601 208.628374,38.1457368 209.325835,36.3402736 L214.896967,22.1843335 L225.234796,22.1843335 L211.309106,53.3056594 L201.765013,53.3056594 L196.397129,38.0412885 C196.172487,37.3058873 195.952123,36.5918021 195.740317,35.8947697 C195.524233,35.1956056 195.312427,34.351493 195.1049,33.3581685 C194.918768,34.2598343 194.721938,35.1124733 194.514412,35.9054277 C194.302606,36.7047768 194.082242,37.440178 193.849042,38.1094996 L188.489716,53.3056594 L178.498477,53.3056594 L165.017793,22.1843335 L165.017793,22.1843335 Z" id="Shape" fill="#767C80" sketch:type="MSShapeGroup"></path>
                <path d="M224.389713,38.2651063 C224.389713,35.8009794 224.742723,33.5286963 225.450881,31.4503886 C226.165458,29.3678176 227.188116,27.5666176 228.527412,26.0446569 C229.866709,24.5226962 231.505529,23.3290015 233.439593,22.467836 C235.371518,21.6130653 237.549479,21.1824826 239.973478,21.1824826 C242.153579,21.1824826 244.109038,21.6194601 245.844133,22.4976784 C247.583507,23.3780282 248.877875,24.4779326 249.737935,25.7931284 L249.737935,22.1843335 L259.868238,22.1843335 L259.868238,53.3035278 L249.737935,53.3035278 L249.737935,50.1935268 C248.462822,51.442643 246.969485,52.4530203 245.253644,53.2246587 C243.542083,53.9941654 241.481791,54.3799846 239.070629,54.3799846 C236.787835,54.3799846 234.736101,53.9792442 232.919706,53.1713687 C231.099033,52.3677564 229.554349,51.2593256 228.287794,49.8418132 C227.01482,48.4264323 226.045649,46.7318122 225.382419,44.7536896 C224.719189,42.7734353 224.389713,40.6141269 224.389713,38.2651063 M234.868747,37.9837354 C234.868747,39.1326665 235.048461,40.2283077 235.407888,41.2791854 C235.765177,42.3343262 236.276506,43.2530448 236.935457,44.0353411 C237.594408,44.8155059 238.400981,45.4358008 239.350898,45.8898311 C240.298675,46.3481246 241.387656,46.5762056 242.613561,46.5762056 C243.794538,46.5762056 244.849288,46.3481246 245.775671,45.8898311 C246.704193,45.4358008 247.485092,44.8282955 248.12051,44.0673151 C248.755927,43.3084663 249.245861,42.4366429 249.579615,41.4582396 C249.917649,40.475573 250.084526,39.4332218 250.084526,38.3375806 C250.084526,37.1929127 249.891975,36.1185874 249.511153,35.1103417 C249.130331,34.1084908 248.610444,33.2196146 247.949353,32.4479763 C247.286123,31.6763379 246.470992,31.0603062 245.497542,30.6062759 C244.524091,30.1522456 243.447947,29.9241646 242.26697,29.9241646 C240.136076,29.9241646 238.368889,30.6574342 236.971828,32.1324998 C235.566208,33.6054338 234.868747,35.5579772 234.868747,37.9837354" id="Shape" fill="#767C80" sketch:type="MSShapeGroup"></path>
                <path d="M265.026456,37.7599176 C265.026456,35.4343446 265.405139,33.260115 266.162504,31.2350972 C266.915591,29.2079478 267.978899,27.4685641 269.33959,26.0148145 C270.70456,24.5589333 272.296312,23.4142654 274.112706,22.5786791 C275.93124,21.7388296 277.910233,21.3189049 280.056103,21.3189049 C282.231925,21.3189049 284.174547,21.6855397 285.890387,22.4188093 C287.604088,23.1499473 288.924129,24.2818256 289.850512,25.8208391 L289.850512,22.1843335 L299.982954,22.1843335 L299.982954,50.3917654 C299.982954,52.1034383 299.914492,53.6168726 299.771149,54.9363316 C299.634224,56.2557905 299.405302,57.4494852 299.090803,58.5238104 C298.778443,59.5981357 298.346274,60.5722758 297.800714,61.4377044 C297.255154,62.3052647 296.594063,63.1216666 295.830279,63.8847786 C294.056674,65.5495563 292.069123,66.7453826 289.85693,67.4765206 C287.644737,68.2033954 285.107348,68.5678986 282.244762,68.5678986 C279.825042,68.5678986 277.644941,68.2630802 275.715155,67.6513116 C273.783231,67.0395431 272.159387,66.1741145 270.843624,65.0656837 C269.532141,63.9529897 268.528738,62.6633731 267.839834,61.1989655 C267.15521,59.7281631 266.812898,58.1379913 266.812898,56.4263183 L276.928225,56.4263183 C276.928225,57.0999032 277.090823,57.7159349 277.418159,58.2850715 C277.739077,58.8478133 278.190501,59.3359492 278.770292,59.7409527 C279.347944,60.1438247 279.991919,60.4635643 280.695799,60.6937769 C281.403957,60.926121 282.137789,61.0390957 282.903713,61.0390957 C287.559159,61.0390957 289.874046,58.4619941 289.850512,53.3035278 L289.850512,48.8975154 C288.485542,50.4280025 286.960113,51.5065909 285.282783,52.1439386 C283.605453,52.7770232 281.767664,53.0988944 279.775835,53.0988944 C277.238445,53.0988944 275.047647,52.6832329 273.205579,51.856173 C271.363511,51.0269815 269.835943,49.9078927 268.627153,48.4946434 C267.411944,47.0835258 266.506956,45.4592484 265.914328,43.6218112 C265.323839,41.7822424 265.026456,39.829699 265.026456,37.7599176 M275.505489,37.5574159 C275.505489,39.8382253 276.16658,41.6969785 277.486621,43.1336753 C278.804524,44.5703722 280.655149,45.2887206 283.042777,45.2887206 C284.178826,45.2887206 285.184368,45.0776924 286.065822,44.6556361 C286.945137,44.2378429 287.676829,43.6623116 288.269457,42.9311736 C288.859946,42.2000356 289.324207,41.3687125 289.66224,40.4308095 C289.995995,39.4971697 290.162872,38.5145032 290.162872,37.4892047 C290.162872,36.6450921 290.008831,35.792453 289.694332,34.9398139 C289.379832,34.0829117 288.928408,33.2878257 288.342198,32.5566877 C287.75171,31.8319445 286.981507,31.230834 286.027312,30.7640141 C285.079535,30.2971942 283.96702,30.0605869 282.696186,30.0605869 C281.605066,30.0605869 280.623057,30.2609571 279.743743,30.6574342 C278.862289,31.0603062 278.11776,31.5953372 277.503737,32.2689221 C276.887575,32.9446385 276.401919,33.7354612 276.044631,34.647785 C275.685203,35.5601088 275.505489,36.5299858 275.505489,37.5574159" id="Shape" fill="#767C80" sketch:type="MSShapeGroup"></path>
                <path d="M303.9388,37.9709458 C303.9388,35.564372 304.323902,33.3283261 305.102662,31.2585448 C305.881422,29.1887634 306.991798,27.3939582 308.446625,25.8805239 C309.897173,24.3670895 311.619431,23.1819212 313.61554,22.325019 C315.611648,21.4702483 317.82812,21.0396656 320.267094,21.0396656 C322.635467,21.0396656 324.804871,21.4126952 326.777445,22.1523596 C328.74788,22.8898923 330.440186,23.9450332 331.843667,25.3092557 C333.249286,26.6734782 334.344686,28.3638351 335.136283,30.3909845 C335.923601,32.4160023 336.31726,34.7202594 336.31726,37.3101505 L336.31726,38.4910556 C336.31726,38.9983759 336.298005,39.5547229 336.248797,40.1558334 L313.722512,40.1558334 C313.812369,42.1062453 314.55048,43.7177331 315.930426,45.0009549 C317.310372,46.2799135 319.094675,46.9215244 321.279055,46.9215244 C324.411212,46.9215244 327.010646,45.5722231 329.075216,42.8736204 L335.619799,47.1325525 C333.811962,49.5391263 331.693905,51.3573791 329.265628,52.5937058 C326.843768,53.832164 323.827142,54.4481957 320.230724,54.4481957 C318.142619,54.4481957 316.11014,54.1050085 314.133287,53.4101077 C312.156434,52.7152068 310.419199,51.6963031 308.915165,50.3533966 C307.41327,49.0147533 306.206619,47.3137383 305.297352,45.2567466 C304.388085,43.1976233 303.9388,40.7676019 303.9388,37.9709458 M313.790975,34.1894915 L326.287511,34.1894915 C326.287511,33.4327744 326.146307,32.7080312 325.857481,32.0131303 C325.562237,31.3160979 325.16002,30.6872766 324.633715,30.1266664 C324.113828,29.5660562 323.48483,29.1077627 322.755277,28.7539175 C322.023584,28.3979407 321.184919,28.2231497 320.230724,28.2231497 C318.422887,28.2231497 316.940247,28.7837599 315.791362,29.9028486 C314.642476,31.024069 313.974967,32.4522395 313.790975,34.1894915" id="Shape" fill="#767C80" sketch:type="MSShapeGroup"></path>
                <path d="M340.666765,53.3035278 L340.666765,22.1822019 L350.799207,22.1822019 L350.799207,26.4240813 C351.171472,25.8805239 351.637872,25.3177821 352.209106,24.7401191 C352.776061,24.1603245 353.469243,23.6274251 354.280095,23.1414209 C355.095226,22.6596798 356.043003,22.2568078 357.134123,21.9349366 C358.227383,21.6151969 359.478962,21.4574587 360.895279,21.4574587 C362.895666,21.4574587 364.555881,21.7708036 365.893038,22.3953617 C367.230195,23.0199198 368.299921,23.734005 369.112913,24.5461437 C370.114176,25.5394682 370.826613,26.7288997 371.252364,28.1165698 C371.684533,29.5042399 371.902757,31.3438087 371.902757,33.6331446 L371.902757,53.3035278 L361.768175,53.3035278 L361.768175,36.2507465 C361.768175,35.5409245 361.699713,34.8225761 361.560649,34.1042276 C361.421584,33.381616 361.16699,32.7400051 360.809701,32.1751318 C360.450273,31.6145216 359.962478,31.1434385 359.346316,30.7682773 C358.730154,30.3888529 357.949254,30.1991407 356.995059,30.1991407 C356.460196,30.1991407 355.850452,30.2971942 355.165828,30.4911696 C354.483343,30.6872766 353.800858,31.0304638 353.13121,31.5228629 C352.459422,32.0173935 351.901025,32.7016364 351.458158,33.588381 C351.02171,34.4687308 350.799207,35.6411096 350.799207,37.1097803 L350.799207,53.3035278 L340.666765,53.3035278 L340.666765,53.3035278 Z" id="Shape" fill="#767C80" sketch:type="MSShapeGroup"></path>
                <path d="M918.348633,59.9221385 L915.657203,59.9221385 L914.300791,48.6864872 C914.18954,47.7699002 914.07187,46.7914969 913.945642,45.7491457 C913.819415,44.708926 913.703884,43.7433123 913.596912,42.8565676 C913.333759,43.771023 913.05777,44.6684256 912.771083,45.5530387 C912.484397,46.4376517 912.19985,47.2689748 911.919582,48.0448763 L907.527288,59.9221385 L905.191007,59.9221385 L900.88643,47.9873232 C900.604022,47.230606 900.323754,46.4142041 900.043486,45.5402491 C899.767497,44.6662941 899.493647,43.771023 899.219797,42.8586992 C899.142777,43.7561018 899.037944,44.7153208 898.905298,45.7363561 C898.772652,46.7573914 898.642145,47.7443211 898.515918,48.6971452 L897.048254,59.9221385 L894.358963,59.9221385 L897.474005,38.7639001 L900.283105,38.7639001 L904.934272,51.7474615 C905.071197,52.1268859 905.231656,52.5937058 905.41137,53.1457895 C905.591084,53.7000049 905.760101,54.2392991 905.916281,54.7636722 C906.110971,55.3754407 906.301382,56.0106568 906.487514,56.6735837 C906.682204,56.0618151 906.872615,55.4628362 907.058748,54.88091 L907.542264,53.3802653 C907.696304,52.883603 907.839648,52.4658099 907.965875,52.1268859 L912.82457,38.7639001 L915.428282,38.7639001 L918.348633,59.9221385" id="Shape" fill="#707477" sketch:type="MSShapeGroup"></path>
                <path d="M894.363242,59.9327965 L897.478284,38.7745581 L900.287384,38.7745581 L904.938551,51.7581195 C905.075476,52.1375439 905.235935,52.6022321 905.415649,53.1564475 C905.595363,53.7106629 905.76438,54.2499571 905.920559,54.7743302 C906.11525,55.3860987 906.305661,56.0213148 906.491793,56.6842417 C906.686483,56.0724731 906.876894,55.4734942 907.063027,54.891568 L907.546543,53.3909233 C907.700583,52.894261 907.843926,52.4764679 907.970154,52.1375439 L912.828849,38.7745581 L915.432561,38.7745581 L918.350773,59.9327965 L915.659343,59.9327965 L914.302931,48.6950136 C914.191679,47.7805582 914.074009,46.8021549 913.947782,45.7598037 C913.821554,44.719584 913.706024,43.7539703 913.599051,42.8672256 C913.335899,43.781681 913.064188,44.6790836 912.773223,45.5636967 C912.486536,46.4483097 912.201989,47.2796328 911.921721,48.0555343 L907.529427,59.9327965 L905.193146,59.9327965 L900.888569,47.9979812 C900.606162,47.241264 900.325894,46.4248621 900.045626,45.5509071 C899.769636,44.676952 899.495786,43.781681 899.221937,42.8693572 C899.144916,43.7667598 899.040083,44.7259788 898.907437,45.7470141 C898.774791,46.7680493 898.644285,47.7549791 898.518057,48.7078032 L897.050393,59.9327965 L894.363242,59.9327965 L894.363242,59.9327965 Z" id="Shape" fill="#13171D" sketch:type="MSShapeGroup"></path>
                <path d="M879.496193,41.2557378 L879.496193,38.7788213 L892.679494,38.7788213 L892.679494,41.2557378 L887.433559,41.2557378 L887.433559,59.9391913 L884.742129,59.9391913 L884.742129,41.2557378 L879.496193,41.2557378 Z" id="Shape" fill="#13171D" sketch:type="MSShapeGroup"></path>
            </g>
        </g>
    </g>
</svg>